<?xml version="1.0" encoding="utf-8"?>
<!-- Generator: Adobe Illustrator 21.1.0, SVG Export Plug-In . SVG Version: 6.00 Build 0)  -->
<svg version="1.1" id="Layer_1" xmlns="http://www.w3.org/2000/svg" xmlns:xlink="http://www.w3.org/1999/xlink" x="0px" y="0px"
	 viewBox="0 0 181 118" style="enable-background:new 0 0 181 118;" xml:space="preserve">
<style type="text/css">
	.st0{fill:#19B9DF;}
	.st1{fill:#131A1C;}
	.st2{fill:#1D1D1B;}
</style>
<g>
	<g>
		<g>
			<g>
				<g>
					<polygon class="st0" points="150.9,21.2 138.5,29 138.5,47.7 135.9,49.4 135.9,30.7 131.7,33.4 131.7,33.4 123.6,38.5 
						123.6,72.9 150.9,55.6 150.9,55.6 					"/>
					<polygon class="st1" points="135.9,49.4 138.5,47.7 138.5,29 150.9,21.2 123.6,3.8 123.6,16.3 131.7,21.5 131.7,33.4 
						135.9,30.7 					"/>
					<polygon class="st0" points="178.2,13.2 178.2,3.8 150.9,21.2 150.9,21.2 150.9,21.2 150.9,21.2 168,32.1 178.2,25.6 
						178.2,16.3 164.9,24.8 164.9,21.7 					"/>
					<polygon class="st0" points="170.5,33.6 178.2,38.5 178.2,28.7 					"/>
					<polygon class="st1" points="150.9,21.2 150.9,55.6 150.9,55.6 178.2,72.9 178.2,57.3 163.3,47.8 163.3,44.7 178.2,54.2 
						178.2,38.5 168,32.1 168,32.1 					"/>
				</g>
				<g>
					<path class="st2" d="M7,55.6V41.9H3.8v-4.4h11.4v4.4h-3.4v13.4c0,4.4,2.2,6.7,5.8,6.7c3.7,0,5.9-2.1,5.9-6.5V41.9h-3.4v-4.4
						h11.3v4.4h-3.1v13.6c0,7.4-4.4,11-10.6,11C11.3,66.5,7,62.9,7,55.6z"/>
					<path class="st2" d="M39.7,61.6h3.5V41.8H38v3.9h-4.6v-8.1H58v8.1h-4.6v-3.9h-5.3v19.8h3.5V66h-12V61.6z"/>
					<path class="st2" d="M60.6,61.6h3.2V41.9h-3.2v-4.4h21.2v8.1h-4.7v-3.8h-8.4v7.6h8.6v4.2h-8.6v8h8.5v-3.8h4.7V66H60.6V61.6z"/>
					<path d="M108.3,58.2c-1.2,1.3-2.5,2.3-4.1,2.9c-0.9,0.4-1.8,0.6-2.7,0.8c-0.1,0-0.3,0-0.4,0c-0.2,0-0.4,0-0.7,0
						c-0.1,0-0.2,0-0.4,0c-5.9,0-9.9-4.5-9.9-10.2c0-5.7,4-10.2,9.9-10.2c0.1,0,0.2,0,0.4,0c0.2,0,0.5,0,0.7,0c0.1,0,0.3,0,0.4,0
						c1,0.1,1.9,0.4,2.7,0.8c1.5,0.7,2.9,1.7,4.1,2.9l2.6-2.7l0.7-0.7c-1.3-1.5-3-2.7-4.8-3.5c-1.2-0.6-2.5-1-4.1-1.2l0,0
						c-0.2,0-0.3,0-0.5-0.1c-0.2,0-0.5,0-0.7-0.1c-0.1,0-0.2,0-0.2,0c-0.3,0-0.7,0-1,0c0,0,0,0,0,0c0,0,0,0-0.1,0
						c-0.5,0-1,0-1.4,0.1c-0.1,0-0.2,0-0.3,0c-0.3,0-0.5,0.1-0.8,0.1c-7,1-11.9,6-12.4,13.2c0,0.4-0.1,0.9-0.1,1.4
						c0,0.5,0,0.9,0.1,1.4c0.5,7.2,5.4,12.2,12.4,13.2c0.2,0,0.5,0.1,0.8,0.1c0.1,0,0.2,0,0.3,0c0.5,0,0.9,0.1,1.4,0.1
						c0,0,0,0,0.1,0c0,0,0,0,0,0c0.3,0,0.7,0,1,0c0.1,0,0.2,0,0.2,0c0.2,0,0.5,0,0.7-0.1c0.2,0,0.3,0,0.5-0.1l0,0
						c1.6-0.2,2.9-0.7,4.1-1.2c1.8-0.8,3.5-2,4.8-3.5l-0.7-0.7L108.3,58.2z"/>
					<rect x="106.9" y="41.9" width="4.7" height="5.6"/>
					<rect x="106.9" y="56" width="4.7" height="5.6"/>
				</g>
				<g>
					<g>
						<path class="st2" d="M8.7,76.1v-3.1h0.7V76c0,1.3-0.6,1.9-1.8,1.9c-1.2,0-1.9-0.6-1.9-1.9v-3.1h0.8v3.1c0,1,0.5,1.2,1.2,1.2
							C8.2,77.3,8.7,77,8.7,76.1z"/>
						<path class="st2" d="M11,72.9h0.9l2.1,3.6h0v-3.6h0.7v4.9H14l-2.3-3.9h0v3.9H11V72.9z"/>
						<path class="st2" d="M16.4,77.8v-4.9h0.8v4.9H16.4z"/>
						<path class="st2" d="M18.6,73.2v-0.2h0.7l1.3,4h0l1.3-4h0.6v0.2L21,77.8h-0.8L18.6,73.2z"/>
						<path class="st2" d="M24,72.9h3v0.6h-2.3V75h1.6v0.6h-1.6v1.7h2.3v0.6H24V72.9z"/>
						<path class="st2" d="M30.2,75.8c-0.1,0-0.1,0-0.2,0h-0.7v2h-0.8v-4.9H30c1.1,0,1.8,0.4,1.8,1.4c0,0.7-0.3,1.1-0.8,1.3l1.1,2
							v0.2h-0.7L30.2,75.8z M29.3,75.2H30c0.7,0,1-0.2,1-0.9c0-0.6-0.4-0.9-1-0.9h-0.7V75.2z"/>
						<path class="st2" d="M33.2,77.5v-0.6h0.3c0.2,0.2,0.6,0.4,1.2,0.4c0.6,0,1-0.3,1-0.8c0-0.6-0.5-0.7-1.1-0.9
							c-0.9-0.3-1.3-0.6-1.3-1.4c0-0.9,0.6-1.4,1.6-1.4c0.6,0,1,0.1,1.3,0.3v0.6h-0.3c-0.3-0.2-0.6-0.3-1-0.3
							c-0.6,0-0.9,0.3-0.9,0.7c0,0.5,0.4,0.6,1,0.8c1,0.3,1.5,0.6,1.5,1.4c0,1-0.6,1.5-1.7,1.5C34,77.9,33.5,77.7,33.2,77.5z"/>
						<path class="st2" d="M37.8,77.8v-4.9h0.8v4.9H37.8z"/>
						<path class="st2" d="M40.3,72.9h1.4c1.6,0,2.5,0.7,2.5,2.4c0,1.7-0.9,2.5-2.5,2.5h-1.4V72.9z M41.7,77.3
							c1.2,0,1.7-0.5,1.7-1.9c0-1.4-0.5-1.9-1.7-1.9h-0.6v3.8H41.7z"/>
						<path class="st2" d="M45.1,77.6l1.6-4.7h0.8l1.6,4.7v0.2h-0.7L48,76.5h-1.8l-0.4,1.4h-0.6V77.6z M46.3,75.9h1.4l-0.7-2.2h0
							L46.3,75.9z"/>
						<path class="st2" d="M50.5,72.9h1.4c1.6,0,2.5,0.7,2.5,2.4c0,1.7-0.9,2.5-2.5,2.5h-1.4V72.9z M51.9,77.3
							c1.2,0,1.7-0.5,1.7-1.9c0-1.4-0.5-1.9-1.7-1.9h-0.6v3.8H51.9z"/>
						<path class="st2" d="M58,72.9h1.4c1.6,0,2.5,0.7,2.5,2.4c0,1.7-0.9,2.5-2.5,2.5H58V72.9z M59.4,77.3c1.2,0,1.7-0.5,1.7-1.9
							c0-1.4-0.5-1.9-1.7-1.9h-0.6v3.8H59.4z"/>
						<path class="st2" d="M63.3,72.9h3v0.6h-2.3V75h1.7v0.6h-1.7v1.7h2.3v0.6h-3.1V72.9z"/>
						<path class="st2" d="M70,77.8v-4.9h0.8v4.9H70z"/>
						<path class="st2" d="M72.5,72.9h0.9l2.1,3.6h0v-3.6h0.7v4.9h-0.7l-2.3-3.9h0v3.9h-0.7V72.9z"/>
						<path class="st2" d="M77.7,75.4c0-1.6,0.9-2.5,2.3-2.5c0.6,0,1,0.1,1.4,0.3v0.6h-0.3c-0.2-0.2-0.6-0.4-1.1-0.4
							c-0.9,0-1.5,0.6-1.5,1.9c0,1.3,0.5,2,1.4,2c0.4,0,0.7-0.1,0.9-0.2v-1.3H80v-0.5h1.6v2.2c-0.4,0.2-1,0.4-1.6,0.4
							C78.5,77.9,77.7,77,77.7,75.4z"/>
						<path class="st2" d="M83.2,72.9h3v0.6h-2.3V75h1.6v0.6h-1.6v1.7h2.3v0.6h-3.1V72.9z"/>
						<path class="st2" d="M87.7,72.9h0.9l2.1,3.6h0v-3.6h0.7v4.9h-0.7l-2.3-3.9h0v3.9h-0.7V72.9z"/>
						<path class="st2" d="M93.1,77.8v-4.9h0.8v4.9H93.1z"/>
						<path class="st2" d="M95.6,72.9h3v0.6h-2.3V75H98v0.6h-1.7v1.7h2.3v0.6h-3.1V72.9z"/>
						<path class="st2" d="M101.9,75.8c-0.1,0-0.1,0-0.2,0h-0.7v2h-0.8v-4.9h1.5c1.1,0,1.8,0.4,1.8,1.4c0,0.7-0.3,1.1-0.8,1.3l1.1,2
							v0.2h-0.7L101.9,75.8z M100.9,75.2h0.7c0.7,0,1-0.2,1-0.9c0-0.6-0.4-0.9-1-0.9h-0.7V75.2z"/>
						<path class="st2" d="M105.1,77.8v-4.9h0.8v4.9H105.1z M105.3,72.6l0.3-0.7h0.7v0.2l-0.6,0.6h-0.4V72.6z"/>
						<path class="st2" d="M107.3,77.6l1.6-4.7h0.8l1.6,4.7v0.2h-0.7l-0.5-1.4h-1.8l-0.4,1.4h-0.6V77.6z M108.5,75.9h1.4l-0.7-2.2h0
							L108.5,75.9z"/>
						<path class="st2" d="M59.4,86v-2l-1.5-2.7v-0.2h0.7l1.2,2.2h0l1.2-2.2h0.6v0.2L60.2,84v2H59.4z"/>
						<path class="st2" d="M66.2,86v-4.3h-1.4v-0.6h3.6v0.6H67V86H66.2z"/>
						<path class="st2" d="M69.7,81.1h3v0.6h-2.3v1.5h1.6v0.6h-1.6v1.7h2.3V86h-3.1V81.1z"/>
						<path class="st2" d="M73.9,83.6c0-1.6,1-2.5,2.2-2.5c0.7,0,1.1,0.2,1.4,0.4v0.6h-0.3c-0.2-0.2-0.6-0.4-1.1-0.4
							c-0.9,0-1.5,0.7-1.5,1.9c0,1.3,0.5,1.9,1.4,1.9c0.6,0,1-0.2,1.3-0.5h0.2v0.6c-0.3,0.3-0.8,0.5-1.5,0.5
							C74.8,86.1,73.9,85.2,73.9,83.6z"/>
						<path class="st2" d="M79.1,81.1H80l2.1,3.6h0v-3.6h0.7V86h-0.7l-2.3-3.9h0V86h-0.7V81.1z"/>
						<path class="st2" d="M84.2,83.6c0-1.6,1-2.5,2.2-2.5c1.2,0,2.2,0.9,2.2,2.5c0,1.6-1,2.5-2.2,2.5
							C85.3,86.1,84.2,85.2,84.2,83.6z M87.9,83.6c0-1.3-0.6-1.9-1.4-1.9c-0.8,0-1.4,0.6-1.4,1.9c0,1.3,0.6,1.9,1.4,1.9
							C87.3,85.5,87.9,84.9,87.9,83.6z"/>
						<path class="st2" d="M90.1,86v-4.9h0.8v4.3h2.2V86H90.1z"/>
						<path class="st2" d="M93.9,83.6c0-1.6,1-2.5,2.2-2.5c1.2,0,2.2,0.9,2.2,2.5c0,1.6-1,2.5-2.2,2.5
							C94.9,86.1,93.9,85.2,93.9,83.6z M97.6,83.6c0-1.3-0.6-1.9-1.4-1.9c-0.8,0-1.4,0.6-1.4,1.9c0,1.3,0.6,1.9,1.4,1.9
							C97,85.5,97.6,84.9,97.6,83.6z"/>
						<path class="st2" d="M99.6,83.6c0-1.6,0.9-2.5,2.3-2.5c0.6,0,1,0.1,1.4,0.3V82H103c-0.2-0.2-0.6-0.4-1.1-0.4
							c-0.9,0-1.5,0.5-1.5,1.9c0,1.3,0.5,2,1.4,2c0.4,0,0.7-0.1,0.9-0.2v-1.3h-0.8v-0.5h1.6v2.2c-0.4,0.2-1,0.4-1.6,0.4
							C100.4,86.1,99.6,85.2,99.6,83.6z"/>
						<path class="st2" d="M105.1,86v-4.9h0.8V86H105.1z M105.3,80.8l0.3-0.7h0.7v0.2l-0.6,0.6h-0.4V80.8z"/>
						<path class="st2" d="M107.3,85.8l1.6-4.7h0.8l1.6,4.7V86h-0.7l-0.5-1.4h-1.8l-0.4,1.4h-0.6V85.8z M108.5,84.1h1.4l-0.7-2.2h0
							L108.5,84.1z"/>
					</g>
				</g>
			</g>
			<g>
				<rect x="3.8" y="97.9" class="st2" width="107.7" height="1.4"/>
			</g>
		</g>
	</g>
	<g>
		<path d="M49.7,105.9h5.8v1.6H52v1.8h2.5v1.5H52v1.9h3.6v1.6h-5.9V105.9z"/>
		<path d="M56.9,105.9h3l1.6,5h0l1.6-5h3v8.4h-2.3v-5.8h0l-1.9,5.8h-1.3l-1.9-5.8h0v5.8h-1.8V105.9z"/>
		<path d="M67.7,105.9h3.1c2.3,0,3.4,0.9,3.4,2.7c0,1.8-1.2,2.7-3.5,2.7H70v3h-2.3V105.9z M70,109.9h0.7c0.9,0,1.2-0.5,1.2-1.3
			c0-0.8-0.3-1.2-1.2-1.2H70V109.9z"/>
		<path d="M78.5,111.2h-0.9v3.1h-2.3v-8.4h3.2c2.2,0,3.4,0.9,3.4,2.6c0,1.1-0.5,1.8-1.2,2.2l1.7,3v0.5h-2.1L78.5,111.2z M77.6,109.7
			h0.7c0.9,0,1.2-0.4,1.2-1.1c0-0.7-0.4-1.1-1.2-1.1h-0.7V109.7z"/>
		<path d="M83.5,105.9h5.8v1.6h-3.5v1.8h2.5v1.5h-2.5v1.9h3.6v1.6h-5.9V105.9z"/>
		<path d="M90.4,113.7v-1.6h0.9c0.3,0.4,0.9,0.7,1.8,0.7c0.9,0,1.3-0.3,1.3-0.8c0-0.7-0.7-0.8-1.6-1c-1.5-0.4-2.4-1-2.4-2.6
			c0-1.7,1.3-2.6,3.2-2.6c1.1,0,1.9,0.2,2.5,0.6v1.5h-0.8c-0.4-0.3-0.9-0.5-1.6-0.5c-0.8,0-1.2,0.2-1.2,0.8c0,0.6,0.5,0.7,1.4,0.9
			c2,0.5,2.7,1.1,2.7,2.7c0,1.7-1.2,2.7-3.3,2.7C91.9,114.4,91.1,114.1,90.4,113.7z"/>
		<path d="M97.1,113.7l2.7-7.9h2.5l2.7,7.9v0.5h-2.2l-0.6-1.9h-2.7l-0.6,1.9h-1.8V113.7z M100,110.8h1.7l-0.9-2.8h0L100,110.8z"/>
		<path d="M105.8,113.7v-1.6h0.9c0.3,0.4,0.9,0.7,1.8,0.7c0.9,0,1.3-0.3,1.3-0.8c0-0.7-0.7-0.8-1.6-1c-1.5-0.4-2.4-1-2.4-2.6
			c0-1.7,1.3-2.6,3.2-2.6c1.1,0,1.9,0.2,2.5,0.6v1.5h-0.8c-0.4-0.3-0.9-0.5-1.6-0.5c-0.8,0-1.2,0.2-1.2,0.8c0,0.6,0.5,0.7,1.4,0.9
			c2,0.5,2.7,1.1,2.7,2.7c0,1.7-1.2,2.7-3.3,2.7C107.3,114.4,106.4,114.1,105.8,113.7z"/>
	</g>
</g>
</svg>
